HIERARCHY
ROOT hip
{
	OFFSET 0.000000 0.000000 0.000000 
	CHANNELS 6 Xposition Yposition Zposition Xrotation Zrotation Yrotation
	JOINT abdomen
	{
		OFFSET 0.000000 3.402643 0.000000 
		CHANNELS 3 Xrotation Zrotation Yrotation
		JOINT chest
		{
			OFFSET 0.000000 8.438565 -0.680529 
			CHANNELS 3 Xrotation Zrotation Yrotation
			JOINT neck
			{
				OFFSET 0.000000 10.207942 -0.272212 
				CHANNELS 3 Xrotation Zrotation Yrotation
				JOINT head
				{
					OFFSET 0.000000 3.130431 0.000000 
					CHANNELS 3 Xrotation Zrotation Yrotation
					End Site
					{
						OFFSET 0.000000 3.130435 0.000000 
					}
				}
			}
			JOINT lCollar
			{
				OFFSET 3.470700 6.669187 -0.816635 
				CHANNELS 3 Yrotation Zrotation Xrotation
				JOINT lShldr
				{
					OFFSET 3.198488 0.000000 0.000000 
					CHANNELS 3 Zrotation Yrotation Xrotation
					JOINT lForeArm
					{
						OFFSET 10.139888 0.000000 0.000000 
						CHANNELS 3 Yrotation Zrotation Xrotation
						JOINT lHand
						{
							OFFSET 8.370511 0.000000 0.000000 
							CHANNELS 3 Zrotation Yrotation Xrotation
							End Site
							{
								OFFSET 4.083176 0.000000 0.000000 
							}
						}
					}
				}
			}
			JOINT rCollar
			{
				OFFSET -3.470700 6.669187 -0.816635 
				CHANNELS 3 Yrotation Zrotation Xrotation
				JOINT rShldr
				{
					OFFSET -3.198488 0.000000 0.000000 
					CHANNELS 3 Zrotation Yrotation Xrotation
					JOINT rForeArm
					{
						OFFSET -10.139888 0.000000 0.000000 
						CHANNELS 3 Yrotation Zrotation Xrotation
						JOINT rHand
						{
							OFFSET -8.370511 0.000000 0.000000 
							CHANNELS 3 Zrotation Yrotation Xrotation
							End Site
							{
								OFFSET -4.083176 0.000000 0.000000 
							}
						}
					}
				}
			}
		}
	}
	JOINT lThigh
	{
		OFFSET 5.308129 -1.633274 1.361059 
		CHANNELS 3 Xrotation Zrotation Yrotation
		JOINT lShin
		{
			OFFSET -2.041588 -20.007561 0.000000 
			CHANNELS 3 Xrotation Zrotation Yrotation
			JOINT lFoot
			{
				OFFSET 0.000000 -19.190928 -1.224953 
				CHANNELS 3 Xrotation Yrotation Zrotation
				End Site
				{
					OFFSET 0.000000 -2.449906 4.627600 
				}
			}
		}
	}
	JOINT rThigh
	{
		OFFSET -5.308129 -1.633274 1.361059 
		CHANNELS 3 Xrotation Zrotation Yrotation
		JOINT rShin
		{
			OFFSET 2.041588 -20.007561 0.000000 
			CHANNELS 3 Xrotation Zrotation Yrotation
			JOINT rFoot
			{
				OFFSET 0.000000 -19.190928 -1.224953 
				CHANNELS 3 Xrotation Yrotation Zrotation
				End Site
				{
					OFFSET 0.000000 -2.449906 4.627600 
				}
			}
		}
	}
}
MOTION
Frames: 18
Frame Time: 0.033333
-24.699547 47.352325 8.845262 4.218750 7.714845 2.657561 -1.767578 -6.513671 14.736329 0.000000 0.000000 0.000000 -5.458984 0.166016 -7.207002 0.000000 0.000000 0.000000 0.000000 0.000000 0.000000 -77.548828 -7.021484 48.299583 3.496094 3.994141 -7.197945 39.775391 9.658203 -15.584296 0.000000 0.000000 0.000000 81.855469 5.791016 40.527344 -2.705078 0.029297 -12.246098 -50.986328 -5.615234 -8.682594 -7.382896 -5.107303 1.521862 4.427115 -5.199831 -2.215882 -0.234935 7.332687 9.320890 -33.530846 1.542422 7.572636 55.162590 -7.092194 -1.972115 15.403296 1.585444 7.677093 
-25.348946 48.158474 8.542955 4.570313 6.679688 -8.065269 -3.515625 -6.513672 17.381702 0.000000 0.000000 0.000000 -5.117188 3.857422 -1.240234 0.000000 0.000000 0.000000 0.000000 0.000000 0.000000 -76.298828 -8.476563 44.793484 6.220703 3.242188 -9.638674 33.720707 12.724610 -23.581833 0.000000 0.000000 0.000000 80.517578 6.679820 40.936943 -1.816406 0.761719 -12.910259 -55.585941 -5.078125 -9.277343 -7.605461 -2.470366 6.473462 2.926321 -7.534129 2.434417 -0.258095 7.828321 9.115692 -38.829487 5.933955 9.973963 60.881111 -10.102270 -2.346620 21.536057 4.527755 7.027645 
-26.020739 48.539154 7.815179 6.152344 3.164063 -15.664063 -5.458984 -4.052734 19.305952 0.000000 0.000000 0.000000 -5.273437 7.021484 2.481663 0.000000 0.000000 0.000000 0.000000 0.000000 0.000000 -74.345703 -9.218749 43.230858 7.568360 2.324219 -10.859771 30.605467 14.609373 -28.710939 0.000000 0.000000 0.000000 79.824219 7.412109 43.857422 -0.898438 1.796875 -11.845703 -58.408199 -4.589844 -9.698046 -8.335415 2.361049 10.210651 1.509775 -8.558084 6.268881 -0.099868 7.672347 9.062034 -43.019997 11.011676 9.251483 65.363289 -11.528554 -2.145612 22.053802 5.894388 6.365760 
-25.852791 48.192066 6.684330 8.789063 -1.767578 -18.476866 -6.679688 0.166016 18.457022 0.000000 0.000000 0.000000 -6.347656 8.964845 4.064022 0.000000 0.000000 0.000000 0.000000 0.000000 0.000000 -73.183594 -9.169922 43.299221 8.144532 1.494141 -10.967051 30.341797 15.820313 -30.944599 0.000000 0.000000 0.000000 79.658203 8.496094 46.894531 -0.410156 1.835938 -9.746094 -59.843754 -4.716797 -9.892579 -9.286172 8.328814 11.430882 0.982587 -9.149880 7.015036 -0.344076 7.445183 8.602929 -44.936302 14.157659 4.182903 65.489082 -13.100272 -1.056915 19.902027 6.843300 5.281287 
-25.606468 47.307537 5.564676 11.416016 -8.261718 -19.181091 -5.117187 7.900391 15.108765 0.000000 0.000000 0.000000 -8.261718 8.085938 7.227937 0.000000 0.000000 0.000000 0.000000 0.000000 0.000000 -75.253906 -6.542969 44.119980 7.519531 1.933594 -11.162109 34.511719 16.650391 -30.202276 0.000000 0.000000 0.000000 78.701172 11.367188 50.009766 0.507812 -0.117188 -10.644531 -60.957027 -6.582031 -11.436666 -10.319012 15.617720 10.420083 3.258695 -9.243194 7.435242 -2.288197 7.428195 7.509413 -39.933197 17.125429 -2.809982 57.596081 -13.608043 3.698439 13.097267 5.075179 3.237287 
-25.147408 46.456604 5.004849 12.832031 -11.269531 -22.725277 0.527344 15.976540 14.983177 0.000000 0.000000 0.000000 -12.832031 2.109375 13.887079 0.000000 0.000000 0.000000 0.000000 0.000000 0.000000 -80.136719 -4.580078 47.840633 7.861328 0.605469 -12.607422 39.326172 18.007813 -29.791903 0.000000 0.000000 0.000000 73.593750 15.263673 47.883434 1.650391 -1.865234 -9.013352 -63.173828 -8.691407 -12.872570 -16.343679 21.886015 12.851954 17.033920 -7.498191 4.784363 -5.919259 6.548479 3.967124 -32.433647 20.482813 -0.736080 45.283600 -10.859336 6.537413 5.548924 2.675896 3.575919 
-25.035444 43.142426 4.277075 14.921875 -8.280904 -26.906572 5.791016 15.996095 19.377691 0.000000 0.000000 0.000000 -20.390625 -2.470703 17.733953 0.000000 0.000000 0.000000 0.000000 0.000000 0.000000 -82.597656 -7.958984 53.621693 7.734375 -0.947266 -14.697269 37.871094 21.472996 -34.009548 0.000000 0.000000 0.000000 68.544922 19.033203 43.284435 1.572266 -1.455078 -7.616939 -64.550781 -8.535156 -12.872543 -31.591032 25.350571 14.191476 38.242794 -6.114409 2.749466 -4.231164 2.970867 1.995669 -27.425283 21.935951 8.430379 33.632359 -7.724218 2.406845 5.270938 4.611572 5.142421 
-26.457407 45.247375 3.851607 15.634766 -4.755859 -28.321119 9.833984 13.339845 22.666016 0.000000 0.000000 0.000000 -26.201170 -5.644531 17.557631 0.000000 0.000000 0.000000 0.000000 0.000000 0.000000 -82.939453 -13.720702 58.327759 7.724609 -1.718750 -16.367188 37.089844 24.111328 -34.345703 0.000000 0.000000 0.000000 63.876953 21.650393 41.058296 1.054687 -0.048828 -11.171875 -64.863281 -10.800781 -14.181519 -44.840233 25.973211 13.735046 55.165035 -1.332389 -1.035361 4.768876 -0.613810 1.245831 -20.350565 18.328930 15.780823 19.528406 -5.177774 -0.740064 4.827197 5.222506 6.868010 
-26.334244 46.154297 2.653578 16.679686 -3.359375 -29.541016 9.648438 12.812500 26.544289 0.000000 0.000000 0.000000 -29.189451 -9.316406 14.226935 0.000000 0.000000 0.000000 0.000000 0.000000 0.000000 -81.816406 -16.269533 58.708202 8.417968 0.712891 -16.015627 37.968750 22.060547 -32.041016 0.000000 0.000000 0.000000 61.044926 19.755859 37.659554 0.683594 1.650391 -11.201453 -62.333981 -12.685547 -15.881052 -54.705311 23.954229 6.941083 65.497841 1.264387 -0.438078 17.257196 -1.821220 -1.655656 -14.754341 15.745729 21.722586 6.061994 -2.946275 -2.550080 4.089972 2.943238 3.707203 
-25.987150 46.277454 0.391879 17.753906 -4.755859 -30.967604 7.363281 14.228516 27.939451 0.000000 0.000000 0.000000 -27.949217 -8.974609 13.318789 0.000000 0.000000 0.000000 0.000000 0.000000 0.000000 -79.560547 -12.070312 54.833984 7.685547 3.349610 -14.160728 40.546875 20.301167 -31.802784 0.000000 0.000000 0.000000 64.882813 16.669922 37.375851 -0.253906 1.806641 -9.228516 -60.703121 -11.103515 -15.255784 -58.921387 21.863506 0.365384 70.374443 1.614586 1.891316 20.560148 1.135199 -3.151778 -14.042002 17.382629 21.897886 0.239628 -1.199955 -0.499751 3.231099 0.020081 -2.648803 
-25.998346 46.053528 -0.537434 18.623047 -7.910156 -32.891968 9.824219 14.755858 28.811081 0.000000 0.000000 0.000000 -29.882813 -6.347656 14.559467 0.000000 0.000000 0.000000 0.000000 0.000000 0.000000 -78.056641 -11.123048 53.601631 7.626952 1.806641 -13.447267 41.582031 20.703127 -32.666016 0.000000 0.000000 0.000000 70.751953 18.378908 40.686676 -0.195313 0.917969 -10.810548 -62.216793 -10.937499 -14.816304 -58.106728 23.131901 -3.552115 67.792625 1.468414 3.446201 24.751642 1.936923 -1.671704 -15.106462 21.862732 18.680483 2.060322 -1.324260 2.874332 3.293469 -0.234573 -3.284038 
-25.673651 46.075920 -1.175636 18.105469 -9.853516 -32.570030 13.349610 13.007813 26.545168 0.000000 0.000000 0.000000 -32.343750 -3.173828 16.845163 0.000000 0.000000 0.000000 0.000000 0.000000 0.000000 -78.007813 -10.478516 48.445492 8.505859 1.884766 -12.812501 38.818359 23.652342 -33.779293 0.000000 0.000000 0.000000 77.470703 22.460939 47.894356 -0.439453 0.449219 -12.763733 -65.527344 -10.263673 -14.599609 -56.600212 21.754984 -8.996109 64.680840 -0.086622 3.937064 31.269955 2.237160 -1.395091 -15.468358 24.305277 15.120425 3.725708 -3.796660 2.307072 4.215547 2.338940 -2.599375 
-25.449715 46.355835 -1.265208 16.855467 -9.150390 -29.541016 14.228516 13.339844 21.972658 0.000000 0.000000 0.000000 -32.880859 -3.876953 19.667307 0.000000 0.000000 0.000000 0.000000 0.000000 0.000000 -80.439453 -10.107423 46.814690 9.248047 1.806641 -13.379215 37.968750 24.257813 -34.800678 0.000000 0.000000 0.000000 75.722656 24.257813 45.804790 -0.019531 1.054688 -9.072237 -67.216797 -7.441406 -13.115232 -58.606300 17.879848 -12.749090 66.831558 -1.343971 4.093425 33.382000 1.904120 -0.755286 -15.466670 22.602951 12.829807 3.244421 -4.027894 1.656865 5.183925 2.767253 -3.938951 
-25.102623 47.352325 -1.298798 14.746093 -4.394531 -22.333986 11.933595 14.589844 11.252460 0.000000 0.000000 0.000000 -32.529297 -6.337891 24.609375 0.000000 0.000000 0.000000 0.000000 0.000000 0.000000 -84.482422 -8.623047 48.310547 9.765625 -1.523438 -13.925521 37.490234 23.105469 -35.464916 0.000000 0.000000 0.000000 66.914063 24.374998 41.005859 1.152344 2.695313 -5.957031 -66.005859 -5.078125 -11.640626 -61.625458 9.462852 -10.978149 72.538010 0.540026 2.569494 32.352291 -0.188547 -1.417081 -15.629132 14.513503 7.563996 0.612782 -2.485302 1.756921 4.850374 2.017770 -5.654155 
-25.416128 48.035316 -1.858624 13.710938 0.166016 -16.523409 10.019532 12.832032 5.480685 0.000000 0.000000 0.000000 -32.529297 -7.734375 25.136721 0.000000 0.000000 0.000000 0.000000 0.000000 0.000000 -83.974609 -9.355469 50.769897 9.511719 -3.193359 -14.364689 36.757813 22.050781 -34.439697 0.000000 0.000000 0.000000 62.822262 20.439451 36.132813 2.617188 1.279297 -6.845921 -63.427731 -7.197266 -13.262942 -60.730934 3.827884 -6.175031 72.682129 3.576916 0.543174 31.246979 -1.006416 -1.667474 -16.248116 8.144232 3.401246 -1.040676 -0.991057 1.532309 4.275660 1.737670 -6.305207 
-25.315357 48.225655 -2.765543 12.656251 5.097657 -12.294054 10.009766 5.625000 5.976563 0.000000 0.000000 0.000000 -32.714844 -7.734374 19.511721 0.000000 0.000000 0.000000 0.000000 0.000000 0.000000 -79.423828 -15.546875 51.455078 10.322265 -2.128906 -12.578126 35.312500 21.318363 -32.398792 0.000000 0.000000 0.000000 65.410156 13.818360 37.597656 2.509766 0.000000 -12.070312 -63.671879 -9.511719 -15.029297 -54.104965 -0.380900 -1.954483 65.086037 2.503879 -1.228598 19.152853 3.717412 0.549065 -21.039371 3.465750 2.048589 5.010580 -2.789274 0.451323 2.735322 0.729883 -4.266450 
-24.699547 47.497879 -3.650069 11.777344 7.724609 -10.526031 11.250000 -0.898438 9.648283 0.000000 0.000000 0.000000 -33.398438 -6.162109 13.504809 0.000000 0.000000 0.000000 0.000000 0.000000 0.000000 -75.156250 -21.640625 49.296875 9.003906 -0.429688 -9.472584 38.388672 21.337889 -30.908201 0.000000 0.000000 0.000000 69.687500 9.179688 40.009762 2.089844 -0.957031 -15.722493 -63.681637 -12.539062 -17.521650 -47.496498 -1.259826 -0.854611 54.565304 -2.767742 -2.420510 12.482626 6.162226 2.620269 -29.473326 1.200384 0.383408 18.715143 -5.848420 1.412429 -1.322610 -0.228167 -1.809954 
-23.647079 46.221474 -2.160931 11.425782 10.722657 -7.879043 11.240234 -8.984375 12.441405 0.000000 0.000000 0.000000 -31.650391 -4.228516 6.483655 0.000000 0.000000 0.000000 0.000000 0.000000 0.000000 -72.060547 -29.492186 50.258865 9.023438 1.279297 -7.783205 40.009766 20.546877 -30.416492 0.000000 0.000000 0.000000 74.892578 5.996094 40.958054 1.367187 0.302735 -16.982437 -63.896488 -17.207031 -20.449217 -35.682709 -4.756147 3.794874 34.713516 -4.771204 0.326691 8.159673 4.099991 4.654743 -41.252892 -3.554744 -1.959922 39.305111 -9.692660 3.820635 3.403403 0.205548 2.064324 
